<mxfile host="app.diagrams.net" agent="Mozilla/5.0 (Macintosh; Intel Mac OS X 10_15_7) AppleWebKit/537.36 (KHTML, like Gecko) Chrome/138.0.0.0 Safari/537.36" version="28.0.4">
  <diagram name="第 1 页" id="Y-6UnXWzn9jeEXDlogMS">
    <mxGraphModel dx="2514" dy="1351" grid="1" gridSize="10" guides="1" tooltips="1" connect="1" arrows="1" fold="1" page="1" pageScale="1" pageWidth="827" pageHeight="1169" math="0" shadow="0">
      <root>
        <mxCell id="0" />
        <mxCell id="1" parent="0" />
        <mxCell id="I_KxvgHxnJEYVX6ZV_vD-1" value="" style="rounded=0;whiteSpace=wrap;html=1;" parent="1" vertex="1">
          <mxGeometry x="50" y="80" width="510" height="322.5" as="geometry" />
        </mxCell>
        <mxCell id="I_KxvgHxnJEYVX6ZV_vD-2" value="预算表" style="text;html=1;align=center;verticalAlign=middle;whiteSpace=wrap;rounded=0;" parent="1" vertex="1">
          <mxGeometry x="70" y="102.5" width="60" height="30" as="geometry" />
        </mxCell>
        <mxCell id="I_KxvgHxnJEYVX6ZV_vD-3" value="" style="rounded=0;whiteSpace=wrap;html=1;" parent="1" vertex="1">
          <mxGeometry x="50" y="472.5" width="510" height="322.5" as="geometry" />
        </mxCell>
        <mxCell id="I_KxvgHxnJEYVX6ZV_vD-4" value="任务管理" style="text;html=1;align=center;verticalAlign=middle;whiteSpace=wrap;rounded=0;" parent="1" vertex="1">
          <mxGeometry x="80" y="492.5" width="60" height="30" as="geometry" />
        </mxCell>
        <mxCell id="I_KxvgHxnJEYVX6ZV_vD-5" value="" style="rounded=0;whiteSpace=wrap;html=1;fillColor=#f5f5f5;fontColor=#333333;strokeColor=#666666;" parent="1" vertex="1">
          <mxGeometry x="70" y="536.5" width="470" height="60" as="geometry" />
        </mxCell>
        <mxCell id="I_KxvgHxnJEYVX6ZV_vD-6" value="预算表" style="text;html=1;align=center;verticalAlign=middle;whiteSpace=wrap;rounded=0;" parent="1" vertex="1">
          <mxGeometry x="80" y="551.5" width="60" height="30" as="geometry" />
        </mxCell>
        <mxCell id="I_KxvgHxnJEYVX6ZV_vD-7" value="年度" style="text;html=1;align=center;verticalAlign=middle;whiteSpace=wrap;rounded=0;" parent="1" vertex="1">
          <mxGeometry x="150" y="551.5" width="60" height="30" as="geometry" />
        </mxCell>
        <mxCell id="I_KxvgHxnJEYVX6ZV_vD-8" value="编制单位" style="text;html=1;align=center;verticalAlign=middle;whiteSpace=wrap;rounded=0;" parent="1" vertex="1">
          <mxGeometry x="230" y="551.5" width="60" height="30" as="geometry" />
        </mxCell>
        <mxCell id="I_KxvgHxnJEYVX6ZV_vD-9" value="状态" style="text;html=1;align=center;verticalAlign=middle;whiteSpace=wrap;rounded=0;" parent="1" vertex="1">
          <mxGeometry x="350" y="551.5" width="60" height="30" as="geometry" />
        </mxCell>
        <mxCell id="I_KxvgHxnJEYVX6ZV_vD-10" value="操作" style="text;html=1;align=center;verticalAlign=middle;whiteSpace=wrap;rounded=0;" parent="1" vertex="1">
          <mxGeometry x="460" y="551.5" width="60" height="30" as="geometry" />
        </mxCell>
        <mxCell id="I_KxvgHxnJEYVX6ZV_vD-11" value="分发" style="rounded=1;whiteSpace=wrap;html=1;" parent="1" vertex="1">
          <mxGeometry x="400" y="324" width="120" height="60" as="geometry" />
        </mxCell>
        <mxCell id="I_KxvgHxnJEYVX6ZV_vD-12" value="" style="rounded=0;whiteSpace=wrap;html=1;" parent="1" vertex="1">
          <mxGeometry x="50" y="862.5" width="510" height="310" as="geometry" />
        </mxCell>
        <mxCell id="I_KxvgHxnJEYVX6ZV_vD-13" value="物业收入表" style="text;html=1;align=center;verticalAlign=middle;whiteSpace=wrap;rounded=0;" parent="1" vertex="1">
          <mxGeometry x="80" y="892.5" width="80" height="30" as="geometry" />
        </mxCell>
        <mxCell id="I_KxvgHxnJEYVX6ZV_vD-14" value="2026" style="text;html=1;align=center;verticalAlign=middle;whiteSpace=wrap;rounded=0;" parent="1" vertex="1">
          <mxGeometry x="180" y="892.5" width="60" height="30" as="geometry" />
        </mxCell>
        <mxCell id="I_KxvgHxnJEYVX6ZV_vD-15" value="财务部" style="text;html=1;align=center;verticalAlign=middle;whiteSpace=wrap;rounded=0;" parent="1" vertex="1">
          <mxGeometry x="290" y="892.5" width="60" height="30" as="geometry" />
        </mxCell>
        <mxCell id="I_KxvgHxnJEYVX6ZV_vD-16" value="草稿" style="text;html=1;align=center;verticalAlign=middle;whiteSpace=wrap;rounded=0;" parent="1" vertex="1">
          <mxGeometry x="368" y="892.5" width="60" height="30" as="geometry" />
        </mxCell>
        <mxCell id="I_KxvgHxnJEYVX6ZV_vD-17" value="" style="rounded=0;whiteSpace=wrap;html=1;" parent="1" vertex="1">
          <mxGeometry x="65" y="942.5" width="480" height="40" as="geometry" />
        </mxCell>
        <mxCell id="I_KxvgHxnJEYVX6ZV_vD-18" value="园博" style="text;html=1;align=center;verticalAlign=middle;whiteSpace=wrap;rounded=0;fillColor=#cdeb8b;strokeColor=#36393d;" parent="1" vertex="1">
          <mxGeometry x="70" y="947.5" width="60" height="30" as="geometry" />
        </mxCell>
        <mxCell id="I_KxvgHxnJEYVX6ZV_vD-19" value="新元" style="text;html=1;align=center;verticalAlign=middle;whiteSpace=wrap;rounded=0;fillColor=#cdeb8b;strokeColor=#36393d;" parent="1" vertex="1">
          <mxGeometry x="160" y="947.5" width="60" height="30" as="geometry" />
        </mxCell>
        <mxCell id="I_KxvgHxnJEYVX6ZV_vD-20" value="博远" style="text;html=1;align=center;verticalAlign=middle;whiteSpace=wrap;rounded=0;fillColor=#eeeeee;strokeColor=#36393d;" parent="1" vertex="1">
          <mxGeometry x="260" y="947.5" width="60" height="30" as="geometry" />
        </mxCell>
        <mxCell id="I_KxvgHxnJEYVX6ZV_vD-21" value="丰科投" style="text;html=1;align=center;verticalAlign=middle;whiteSpace=wrap;rounded=0;fillColor=#eeeeee;strokeColor=#36393d;" parent="1" vertex="1">
          <mxGeometry x="368" y="947.5" width="60" height="30" as="geometry" />
        </mxCell>
        <mxCell id="I_KxvgHxnJEYVX6ZV_vD-22" value="数科" style="text;html=1;align=center;verticalAlign=middle;whiteSpace=wrap;rounded=0;fillColor=#eeeeee;strokeColor=#36393d;" parent="1" vertex="1">
          <mxGeometry x="460" y="947.5" width="60" height="30" as="geometry" />
        </mxCell>
        <mxCell id="I_KxvgHxnJEYVX6ZV_vD-23" value="" style="shape=internalStorage;whiteSpace=wrap;html=1;backgroundOutline=1;" parent="1" vertex="1">
          <mxGeometry x="70" y="1002.5" width="480" height="110" as="geometry" />
        </mxCell>
        <mxCell id="I_KxvgHxnJEYVX6ZV_vD-24" value="提交" style="rounded=1;whiteSpace=wrap;html=1;" parent="1" vertex="1">
          <mxGeometry x="470" y="887.5" width="70" height="40" as="geometry" />
        </mxCell>
        <mxCell id="I_KxvgHxnJEYVX6ZV_vD-25" value="保存" style="rounded=1;whiteSpace=wrap;html=1;" parent="1" vertex="1">
          <mxGeometry x="475" y="1122.5" width="70" height="40" as="geometry" />
        </mxCell>
        <mxCell id="I_KxvgHxnJEYVX6ZV_vD-26" value="" style="rounded=0;whiteSpace=wrap;html=1;" parent="1" vertex="1">
          <mxGeometry x="70" y="612.5" width="470" height="50" as="geometry" />
        </mxCell>
        <mxCell id="I_KxvgHxnJEYVX6ZV_vD-27" value="物业收入表" style="text;html=1;align=center;verticalAlign=middle;whiteSpace=wrap;rounded=0;" parent="1" vertex="1">
          <mxGeometry x="80" y="622.5" width="70" height="30" as="geometry" />
        </mxCell>
        <mxCell id="I_KxvgHxnJEYVX6ZV_vD-28" value="2026" style="text;html=1;align=center;verticalAlign=middle;whiteSpace=wrap;rounded=0;" parent="1" vertex="1">
          <mxGeometry x="150" y="622.5" width="60" height="30" as="geometry" />
        </mxCell>
        <mxCell id="I_KxvgHxnJEYVX6ZV_vD-29" value="财务部" style="text;html=1;align=center;verticalAlign=middle;whiteSpace=wrap;rounded=0;" parent="1" vertex="1">
          <mxGeometry x="230" y="622.5" width="60" height="30" as="geometry" />
        </mxCell>
        <mxCell id="I_KxvgHxnJEYVX6ZV_vD-30" value="未开始" style="text;html=1;align=center;verticalAlign=middle;whiteSpace=wrap;rounded=0;fillColor=#eeeeee;strokeColor=#36393d;" parent="1" vertex="1">
          <mxGeometry x="350" y="624.5" width="60" height="30" as="geometry" />
        </mxCell>
        <mxCell id="I_KxvgHxnJEYVX6ZV_vD-31" value="编辑" style="text;html=1;align=center;verticalAlign=middle;whiteSpace=wrap;rounded=0;" parent="1" vertex="1">
          <mxGeometry x="460" y="624.5" width="60" height="30" as="geometry" />
        </mxCell>
        <mxCell id="I_KxvgHxnJEYVX6ZV_vD-32" value="" style="rounded=0;whiteSpace=wrap;html=1;" parent="1" vertex="1">
          <mxGeometry x="70" y="672.5" width="470" height="50" as="geometry" />
        </mxCell>
        <mxCell id="I_KxvgHxnJEYVX6ZV_vD-33" value="房产销售表" style="text;html=1;align=center;verticalAlign=middle;whiteSpace=wrap;rounded=0;" parent="1" vertex="1">
          <mxGeometry x="80" y="682.5" width="70" height="30" as="geometry" />
        </mxCell>
        <mxCell id="I_KxvgHxnJEYVX6ZV_vD-34" value="2026" style="text;html=1;align=center;verticalAlign=middle;whiteSpace=wrap;rounded=0;" parent="1" vertex="1">
          <mxGeometry x="150" y="682.5" width="60" height="30" as="geometry" />
        </mxCell>
        <mxCell id="I_KxvgHxnJEYVX6ZV_vD-35" value="财务部" style="text;html=1;align=center;verticalAlign=middle;whiteSpace=wrap;rounded=0;" parent="1" vertex="1">
          <mxGeometry x="230" y="682.5" width="60" height="30" as="geometry" />
        </mxCell>
        <mxCell id="I_KxvgHxnJEYVX6ZV_vD-36" value="草稿" style="text;html=1;align=center;verticalAlign=middle;whiteSpace=wrap;rounded=0;fillColor=#cce5ff;strokeColor=#36393d;" parent="1" vertex="1">
          <mxGeometry x="350" y="684.5" width="60" height="30" as="geometry" />
        </mxCell>
        <mxCell id="I_KxvgHxnJEYVX6ZV_vD-37" value="编辑" style="text;html=1;align=center;verticalAlign=middle;whiteSpace=wrap;rounded=0;" parent="1" vertex="1">
          <mxGeometry x="460" y="684.5" width="60" height="30" as="geometry" />
        </mxCell>
        <mxCell id="I_KxvgHxnJEYVX6ZV_vD-38" value="" style="rounded=0;whiteSpace=wrap;html=1;" parent="1" vertex="1">
          <mxGeometry x="80" y="140" width="440" height="50" as="geometry" />
        </mxCell>
        <mxCell id="I_KxvgHxnJEYVX6ZV_vD-39" value="" style="rounded=0;whiteSpace=wrap;html=1;" parent="1" vertex="1">
          <mxGeometry x="80" y="205" width="440" height="50" as="geometry" />
        </mxCell>
        <mxCell id="I_KxvgHxnJEYVX6ZV_vD-80" value="" style="rounded=0;whiteSpace=wrap;html=1;" parent="1" vertex="1">
          <mxGeometry x="1340" y="80" width="510" height="330" as="geometry" />
        </mxCell>
        <mxCell id="I_KxvgHxnJEYVX6ZV_vD-81" value="区域管理" style="text;html=1;align=center;verticalAlign=middle;whiteSpace=wrap;rounded=0;" parent="1" vertex="1">
          <mxGeometry x="1340" y="100" width="130" height="30" as="geometry" />
        </mxCell>
        <mxCell id="I_KxvgHxnJEYVX6ZV_vD-82" value="" style="rounded=0;whiteSpace=wrap;html=1;fillColor=#f5f5f5;fontColor=#333333;strokeColor=#666666;" parent="1" vertex="1">
          <mxGeometry x="1360" y="144" width="470" height="60" as="geometry" />
        </mxCell>
        <mxCell id="I_KxvgHxnJEYVX6ZV_vD-83" value="编号" style="text;html=1;align=center;verticalAlign=middle;whiteSpace=wrap;rounded=0;" parent="1" vertex="1">
          <mxGeometry x="1370" y="159" width="60" height="30" as="geometry" />
        </mxCell>
        <mxCell id="I_KxvgHxnJEYVX6ZV_vD-84" value="名称" style="text;html=1;align=center;verticalAlign=middle;whiteSpace=wrap;rounded=0;" parent="1" vertex="1">
          <mxGeometry x="1460" y="160" width="60" height="30" as="geometry" />
        </mxCell>
        <mxCell id="I_KxvgHxnJEYVX6ZV_vD-85" value="所属部门" style="text;html=1;align=center;verticalAlign=middle;whiteSpace=wrap;rounded=0;" parent="1" vertex="1">
          <mxGeometry x="1560" y="160" width="60" height="30" as="geometry" />
        </mxCell>
        <mxCell id="I_KxvgHxnJEYVX6ZV_vD-86" value="操作" style="text;html=1;align=center;verticalAlign=middle;whiteSpace=wrap;rounded=0;" parent="1" vertex="1">
          <mxGeometry x="1750" y="159" width="60" height="30" as="geometry" />
        </mxCell>
        <mxCell id="I_KxvgHxnJEYVX6ZV_vD-87" value="" style="rounded=0;whiteSpace=wrap;html=1;" parent="1" vertex="1">
          <mxGeometry x="1360" y="220" width="470" height="50" as="geometry" />
        </mxCell>
        <mxCell id="I_KxvgHxnJEYVX6ZV_vD-88" value="园博" style="text;html=1;align=center;verticalAlign=middle;whiteSpace=wrap;rounded=0;" parent="1" vertex="1">
          <mxGeometry x="1565" y="230" width="60" height="30" as="geometry" />
        </mxCell>
        <mxCell id="I_KxvgHxnJEYVX6ZV_vD-89" value="编辑" style="text;html=1;align=center;verticalAlign=middle;whiteSpace=wrap;rounded=0;" parent="1" vertex="1">
          <mxGeometry x="1750" y="232" width="60" height="30" as="geometry" />
        </mxCell>
        <mxCell id="I_KxvgHxnJEYVX6ZV_vD-90" value="" style="rounded=0;whiteSpace=wrap;html=1;" parent="1" vertex="1">
          <mxGeometry x="1345" y="472.5" width="510" height="322.5" as="geometry" />
        </mxCell>
        <mxCell id="I_KxvgHxnJEYVX6ZV_vD-91" value="分区管理" style="text;html=1;align=center;verticalAlign=middle;whiteSpace=wrap;rounded=0;" parent="1" vertex="1">
          <mxGeometry x="1340" y="487.5" width="130" height="30" as="geometry" />
        </mxCell>
        <mxCell id="I_KxvgHxnJEYVX6ZV_vD-92" value="" style="rounded=0;whiteSpace=wrap;html=1;fillColor=#f5f5f5;fontColor=#333333;strokeColor=#666666;" parent="1" vertex="1">
          <mxGeometry x="1365" y="536.5" width="470" height="60" as="geometry" />
        </mxCell>
        <mxCell id="I_KxvgHxnJEYVX6ZV_vD-93" value="编号" style="text;html=1;align=center;verticalAlign=middle;whiteSpace=wrap;rounded=0;" parent="1" vertex="1">
          <mxGeometry x="1375" y="551.5" width="60" height="30" as="geometry" />
        </mxCell>
        <mxCell id="I_KxvgHxnJEYVX6ZV_vD-94" value="名称" style="text;html=1;align=center;verticalAlign=middle;whiteSpace=wrap;rounded=0;" parent="1" vertex="1">
          <mxGeometry x="1505" y="551.5" width="60" height="30" as="geometry" />
        </mxCell>
        <mxCell id="I_KxvgHxnJEYVX6ZV_vD-95" value="区域" style="text;html=1;align=center;verticalAlign=middle;whiteSpace=wrap;rounded=0;" parent="1" vertex="1">
          <mxGeometry x="1645" y="551.5" width="60" height="30" as="geometry" />
        </mxCell>
        <mxCell id="I_KxvgHxnJEYVX6ZV_vD-96" value="操作" style="text;html=1;align=center;verticalAlign=middle;whiteSpace=wrap;rounded=0;" parent="1" vertex="1">
          <mxGeometry x="1755" y="551.5" width="60" height="30" as="geometry" />
        </mxCell>
        <mxCell id="I_KxvgHxnJEYVX6ZV_vD-97" value="" style="rounded=0;whiteSpace=wrap;html=1;" parent="1" vertex="1">
          <mxGeometry x="1365" y="612.5" width="470" height="50" as="geometry" />
        </mxCell>
        <mxCell id="I_KxvgHxnJEYVX6ZV_vD-98" value="4号楼" style="text;html=1;align=center;verticalAlign=middle;whiteSpace=wrap;rounded=0;" parent="1" vertex="1">
          <mxGeometry x="1470" y="622.5" width="115" height="30" as="geometry" />
        </mxCell>
        <mxCell id="I_KxvgHxnJEYVX6ZV_vD-99" value="35#" style="text;html=1;align=center;verticalAlign=middle;whiteSpace=wrap;rounded=0;" parent="1" vertex="1">
          <mxGeometry x="1645" y="622.5" width="60" height="30" as="geometry" />
        </mxCell>
        <mxCell id="I_KxvgHxnJEYVX6ZV_vD-100" value="编辑" style="text;html=1;align=center;verticalAlign=middle;whiteSpace=wrap;rounded=0;" parent="1" vertex="1">
          <mxGeometry x="1755" y="624.5" width="60" height="30" as="geometry" />
        </mxCell>
        <mxCell id="I_KxvgHxnJEYVX6ZV_vD-101" value="类型" style="text;html=1;align=center;verticalAlign=middle;whiteSpace=wrap;rounded=0;" parent="1" vertex="1">
          <mxGeometry x="1658" y="160" width="60" height="30" as="geometry" />
        </mxCell>
        <mxCell id="I_KxvgHxnJEYVX6ZV_vD-102" value="写字楼" style="text;html=1;align=center;verticalAlign=middle;whiteSpace=wrap;rounded=0;" parent="1" vertex="1">
          <mxGeometry x="1660" y="232" width="60" height="30" as="geometry" />
        </mxCell>
        <mxCell id="I_KxvgHxnJEYVX6ZV_vD-103" value="35#" style="text;html=1;align=center;verticalAlign=middle;whiteSpace=wrap;rounded=0;" parent="1" vertex="1">
          <mxGeometry x="1460" y="233.75" width="60" height="30" as="geometry" />
        </mxCell>
        <mxCell id="I_KxvgHxnJEYVX6ZV_vD-104" value="1" style="text;html=1;align=center;verticalAlign=middle;whiteSpace=wrap;rounded=0;" parent="1" vertex="1">
          <mxGeometry x="1370" y="232" width="60" height="30" as="geometry" />
        </mxCell>
        <mxCell id="I_KxvgHxnJEYVX6ZV_vD-105" value="" style="rounded=0;whiteSpace=wrap;html=1;" parent="1" vertex="1">
          <mxGeometry x="1360" y="281.5" width="470" height="50" as="geometry" />
        </mxCell>
        <mxCell id="I_KxvgHxnJEYVX6ZV_vD-106" value="丰科投" style="text;html=1;align=center;verticalAlign=middle;whiteSpace=wrap;rounded=0;" parent="1" vertex="1">
          <mxGeometry x="1565" y="291.5" width="60" height="30" as="geometry" />
        </mxCell>
        <mxCell id="I_KxvgHxnJEYVX6ZV_vD-107" value="编辑" style="text;html=1;align=center;verticalAlign=middle;whiteSpace=wrap;rounded=0;" parent="1" vertex="1">
          <mxGeometry x="1750" y="293.5" width="60" height="30" as="geometry" />
        </mxCell>
        <mxCell id="I_KxvgHxnJEYVX6ZV_vD-108" value="其他" style="text;html=1;align=center;verticalAlign=middle;whiteSpace=wrap;rounded=0;" parent="1" vertex="1">
          <mxGeometry x="1660" y="293.5" width="60" height="30" as="geometry" />
        </mxCell>
        <mxCell id="I_KxvgHxnJEYVX6ZV_vD-109" value="6022周围市政" style="text;html=1;align=center;verticalAlign=middle;whiteSpace=wrap;rounded=0;" parent="1" vertex="1">
          <mxGeometry x="1460" y="295.25" width="60" height="30" as="geometry" />
        </mxCell>
        <mxCell id="I_KxvgHxnJEYVX6ZV_vD-110" value="2" style="text;html=1;align=center;verticalAlign=middle;whiteSpace=wrap;rounded=0;" parent="1" vertex="1">
          <mxGeometry x="1370" y="293.5" width="60" height="30" as="geometry" />
        </mxCell>
        <mxCell id="I_KxvgHxnJEYVX6ZV_vD-111" value="" style="rounded=0;whiteSpace=wrap;html=1;" parent="1" vertex="1">
          <mxGeometry x="1360" y="341.5" width="470" height="50" as="geometry" />
        </mxCell>
        <mxCell id="I_KxvgHxnJEYVX6ZV_vD-112" value="新源" style="text;html=1;align=center;verticalAlign=middle;whiteSpace=wrap;rounded=0;" parent="1" vertex="1">
          <mxGeometry x="1565" y="351.5" width="60" height="30" as="geometry" />
        </mxCell>
        <mxCell id="I_KxvgHxnJEYVX6ZV_vD-113" value="编辑" style="text;html=1;align=center;verticalAlign=middle;whiteSpace=wrap;rounded=0;" parent="1" vertex="1">
          <mxGeometry x="1750" y="353.5" width="60" height="30" as="geometry" />
        </mxCell>
        <mxCell id="I_KxvgHxnJEYVX6ZV_vD-114" value="写字楼" style="text;html=1;align=center;verticalAlign=middle;whiteSpace=wrap;rounded=0;" parent="1" vertex="1">
          <mxGeometry x="1660" y="353.5" width="60" height="30" as="geometry" />
        </mxCell>
        <mxCell id="I_KxvgHxnJEYVX6ZV_vD-115" value="37#" style="text;html=1;align=center;verticalAlign=middle;whiteSpace=wrap;rounded=0;" parent="1" vertex="1">
          <mxGeometry x="1460" y="355.25" width="60" height="30" as="geometry" />
        </mxCell>
        <mxCell id="I_KxvgHxnJEYVX6ZV_vD-116" value="1" style="text;html=1;align=center;verticalAlign=middle;whiteSpace=wrap;rounded=0;" parent="1" vertex="1">
          <mxGeometry x="1370" y="353.5" width="60" height="30" as="geometry" />
        </mxCell>
        <mxCell id="I_KxvgHxnJEYVX6ZV_vD-117" value="1" style="text;html=1;align=center;verticalAlign=middle;whiteSpace=wrap;rounded=0;" parent="1" vertex="1">
          <mxGeometry x="1375" y="622.5" width="70" height="30" as="geometry" />
        </mxCell>
        <mxCell id="I_KxvgHxnJEYVX6ZV_vD-118" value="" style="rounded=0;whiteSpace=wrap;html=1;" parent="1" vertex="1">
          <mxGeometry x="1365" y="679.5" width="470" height="50" as="geometry" />
        </mxCell>
        <mxCell id="I_KxvgHxnJEYVX6ZV_vD-119" value="6号楼" style="text;html=1;align=center;verticalAlign=middle;whiteSpace=wrap;rounded=0;" parent="1" vertex="1">
          <mxGeometry x="1470" y="689.5" width="115" height="30" as="geometry" />
        </mxCell>
        <mxCell id="I_KxvgHxnJEYVX6ZV_vD-120" value="35#" style="text;html=1;align=center;verticalAlign=middle;whiteSpace=wrap;rounded=0;" parent="1" vertex="1">
          <mxGeometry x="1645" y="689.5" width="60" height="30" as="geometry" />
        </mxCell>
        <mxCell id="I_KxvgHxnJEYVX6ZV_vD-121" value="编辑" style="text;html=1;align=center;verticalAlign=middle;whiteSpace=wrap;rounded=0;" parent="1" vertex="1">
          <mxGeometry x="1755" y="691.5" width="60" height="30" as="geometry" />
        </mxCell>
        <mxCell id="I_KxvgHxnJEYVX6ZV_vD-122" value="2" style="text;html=1;align=center;verticalAlign=middle;whiteSpace=wrap;rounded=0;" parent="1" vertex="1">
          <mxGeometry x="1375" y="689.5" width="70" height="30" as="geometry" />
        </mxCell>
        <mxCell id="I_KxvgHxnJEYVX6ZV_vD-123" value="" style="rounded=0;whiteSpace=wrap;html=1;" parent="1" vertex="1">
          <mxGeometry x="1365" y="737.5" width="470" height="50" as="geometry" />
        </mxCell>
        <mxCell id="I_KxvgHxnJEYVX6ZV_vD-124" value="地下（信息中心）" style="text;html=1;align=center;verticalAlign=middle;whiteSpace=wrap;rounded=0;" parent="1" vertex="1">
          <mxGeometry x="1470" y="747.5" width="115" height="30" as="geometry" />
        </mxCell>
        <mxCell id="I_KxvgHxnJEYVX6ZV_vD-125" value="35#" style="text;html=1;align=center;verticalAlign=middle;whiteSpace=wrap;rounded=0;" parent="1" vertex="1">
          <mxGeometry x="1645" y="747.5" width="60" height="30" as="geometry" />
        </mxCell>
        <mxCell id="I_KxvgHxnJEYVX6ZV_vD-126" value="编辑" style="text;html=1;align=center;verticalAlign=middle;whiteSpace=wrap;rounded=0;" parent="1" vertex="1">
          <mxGeometry x="1755" y="749.5" width="60" height="30" as="geometry" />
        </mxCell>
        <mxCell id="I_KxvgHxnJEYVX6ZV_vD-127" value="3" style="text;html=1;align=center;verticalAlign=middle;whiteSpace=wrap;rounded=0;" parent="1" vertex="1">
          <mxGeometry x="1375" y="747.5" width="70" height="30" as="geometry" />
        </mxCell>
        <mxCell id="I_KxvgHxnJEYVX6ZV_vD-128" value="添加" style="rounded=1;whiteSpace=wrap;html=1;" parent="1" vertex="1">
          <mxGeometry x="1760" y="97.5" width="60" height="35" as="geometry" />
        </mxCell>
        <mxCell id="I_KxvgHxnJEYVX6ZV_vD-129" value="添加" style="rounded=1;whiteSpace=wrap;html=1;" parent="1" vertex="1">
          <mxGeometry x="1765" y="487.5" width="60" height="35" as="geometry" />
        </mxCell>
        <mxCell id="SKkXFKjDcY55AdcUD5MD-1" value="" style="rounded=0;whiteSpace=wrap;html=1;" vertex="1" parent="1">
          <mxGeometry x="680" y="80" width="510" height="352.5" as="geometry" />
        </mxCell>
        <mxCell id="SKkXFKjDcY55AdcUD5MD-2" value="科目类型管理" style="text;html=1;align=center;verticalAlign=middle;whiteSpace=wrap;rounded=0;" vertex="1" parent="1">
          <mxGeometry x="690" y="97.5" width="130" height="30" as="geometry" />
        </mxCell>
        <mxCell id="SKkXFKjDcY55AdcUD5MD-3" value="" style="rounded=0;whiteSpace=wrap;html=1;fillColor=#eeeeee;strokeColor=#36393d;" vertex="1" parent="1">
          <mxGeometry x="700" y="144" width="470" height="60" as="geometry" />
        </mxCell>
        <mxCell id="SKkXFKjDcY55AdcUD5MD-4" value="编号" style="text;html=1;align=center;verticalAlign=middle;whiteSpace=wrap;rounded=0;" vertex="1" parent="1">
          <mxGeometry x="710" y="159" width="60" height="30" as="geometry" />
        </mxCell>
        <mxCell id="SKkXFKjDcY55AdcUD5MD-5" value="名称" style="text;html=1;align=center;verticalAlign=middle;whiteSpace=wrap;rounded=0;" vertex="1" parent="1">
          <mxGeometry x="810" y="159" width="60" height="30" as="geometry" />
        </mxCell>
        <mxCell id="SKkXFKjDcY55AdcUD5MD-6" value="上级类型" style="text;html=1;align=center;verticalAlign=middle;whiteSpace=wrap;rounded=0;" vertex="1" parent="1">
          <mxGeometry x="930" y="159" width="60" height="30" as="geometry" />
        </mxCell>
        <mxCell id="SKkXFKjDcY55AdcUD5MD-7" value="操作" style="text;html=1;align=center;verticalAlign=middle;whiteSpace=wrap;rounded=0;" vertex="1" parent="1">
          <mxGeometry x="1090" y="159" width="60" height="30" as="geometry" />
        </mxCell>
        <mxCell id="SKkXFKjDcY55AdcUD5MD-8" value="" style="rounded=0;whiteSpace=wrap;html=1;" vertex="1" parent="1">
          <mxGeometry x="700" y="220" width="470" height="50" as="geometry" />
        </mxCell>
        <mxCell id="SKkXFKjDcY55AdcUD5MD-9" value="支出项目" style="text;html=1;align=center;verticalAlign=middle;whiteSpace=wrap;rounded=0;" vertex="1" parent="1">
          <mxGeometry x="805" y="230" width="70" height="30" as="geometry" />
        </mxCell>
        <mxCell id="SKkXFKjDcY55AdcUD5MD-10" value="预算科目" style="text;html=1;align=center;verticalAlign=middle;whiteSpace=wrap;rounded=0;" vertex="1" parent="1">
          <mxGeometry x="930" y="230" width="60" height="30" as="geometry" />
        </mxCell>
        <mxCell id="SKkXFKjDcY55AdcUD5MD-11" value="编辑" style="text;html=1;align=center;verticalAlign=middle;whiteSpace=wrap;rounded=0;" vertex="1" parent="1">
          <mxGeometry x="1090" y="232" width="60" height="30" as="geometry" />
        </mxCell>
        <mxCell id="SKkXFKjDcY55AdcUD5MD-12" value="" style="rounded=0;whiteSpace=wrap;html=1;" vertex="1" parent="1">
          <mxGeometry x="680" y="472.5" width="510" height="322.5" as="geometry" />
        </mxCell>
        <mxCell id="SKkXFKjDcY55AdcUD5MD-13" value="科目管理" style="text;html=1;align=center;verticalAlign=middle;whiteSpace=wrap;rounded=0;" vertex="1" parent="1">
          <mxGeometry x="685" y="487.5" width="130" height="30" as="geometry" />
        </mxCell>
        <mxCell id="SKkXFKjDcY55AdcUD5MD-14" value="" style="rounded=0;whiteSpace=wrap;html=1;fillColor=#eeeeee;strokeColor=#36393d;" vertex="1" parent="1">
          <mxGeometry x="700" y="536.5" width="470" height="60" as="geometry" />
        </mxCell>
        <mxCell id="SKkXFKjDcY55AdcUD5MD-15" value="名称" style="text;html=1;align=center;verticalAlign=middle;whiteSpace=wrap;rounded=0;" vertex="1" parent="1">
          <mxGeometry x="715" y="552.5" width="60" height="30" as="geometry" />
        </mxCell>
        <mxCell id="SKkXFKjDcY55AdcUD5MD-16" value="操作" style="text;html=1;align=center;verticalAlign=middle;whiteSpace=wrap;rounded=0;" vertex="1" parent="1">
          <mxGeometry x="1090" y="551.5" width="60" height="30" as="geometry" />
        </mxCell>
        <mxCell id="SKkXFKjDcY55AdcUD5MD-17" value="" style="rounded=0;whiteSpace=wrap;html=1;" vertex="1" parent="1">
          <mxGeometry x="700" y="612.5" width="470" height="50" as="geometry" />
        </mxCell>
        <mxCell id="SKkXFKjDcY55AdcUD5MD-18" value="改造费" style="text;html=1;align=center;verticalAlign=middle;whiteSpace=wrap;rounded=0;" vertex="1" parent="1">
          <mxGeometry x="710" y="622.5" width="70" height="30" as="geometry" />
        </mxCell>
        <mxCell id="SKkXFKjDcY55AdcUD5MD-19" value="支出项目" style="text;html=1;align=center;verticalAlign=middle;whiteSpace=wrap;rounded=0;" vertex="1" parent="1">
          <mxGeometry x="850" y="622.5" width="60" height="30" as="geometry" />
        </mxCell>
        <mxCell id="SKkXFKjDcY55AdcUD5MD-20" value="技术部" style="text;html=1;align=center;verticalAlign=middle;whiteSpace=wrap;rounded=0;" vertex="1" parent="1">
          <mxGeometry x="960" y="621.5" width="60" height="30" as="geometry" />
        </mxCell>
        <mxCell id="SKkXFKjDcY55AdcUD5MD-21" value="编辑" style="text;html=1;align=center;verticalAlign=middle;whiteSpace=wrap;rounded=0;" vertex="1" parent="1">
          <mxGeometry x="1090" y="624.5" width="60" height="30" as="geometry" />
        </mxCell>
        <mxCell id="SKkXFKjDcY55AdcUD5MD-22" value="" style="rounded=0;whiteSpace=wrap;html=1;" vertex="1" parent="1">
          <mxGeometry x="700" y="672.5" width="470" height="50" as="geometry" />
        </mxCell>
        <mxCell id="SKkXFKjDcY55AdcUD5MD-23" value="设计费" style="text;html=1;align=center;verticalAlign=middle;whiteSpace=wrap;rounded=0;" vertex="1" parent="1">
          <mxGeometry x="710" y="682.5" width="70" height="30" as="geometry" />
        </mxCell>
        <mxCell id="SKkXFKjDcY55AdcUD5MD-24" value="支出项目" style="text;html=1;align=center;verticalAlign=middle;whiteSpace=wrap;rounded=0;" vertex="1" parent="1">
          <mxGeometry x="850" y="682.5" width="60" height="30" as="geometry" />
        </mxCell>
        <mxCell id="SKkXFKjDcY55AdcUD5MD-25" value="技术部" style="text;html=1;align=center;verticalAlign=middle;whiteSpace=wrap;rounded=0;" vertex="1" parent="1">
          <mxGeometry x="960" y="681.5" width="60" height="30" as="geometry" />
        </mxCell>
        <mxCell id="SKkXFKjDcY55AdcUD5MD-26" value="编辑" style="text;html=1;align=center;verticalAlign=middle;whiteSpace=wrap;rounded=0;" vertex="1" parent="1">
          <mxGeometry x="1090" y="684.5" width="60" height="30" as="geometry" />
        </mxCell>
        <mxCell id="SKkXFKjDcY55AdcUD5MD-27" value="所属部门" style="text;html=1;align=center;verticalAlign=middle;whiteSpace=wrap;rounded=0;" vertex="1" parent="1">
          <mxGeometry x="960" y="551.5" width="60" height="30" as="geometry" />
        </mxCell>
        <mxCell id="SKkXFKjDcY55AdcUD5MD-28" value="类型" style="text;html=1;align=center;verticalAlign=middle;whiteSpace=wrap;rounded=0;" vertex="1" parent="1">
          <mxGeometry x="850" y="552.5" width="60" height="30" as="geometry" />
        </mxCell>
        <mxCell id="SKkXFKjDcY55AdcUD5MD-29" value="" style="rounded=0;whiteSpace=wrap;html=1;" vertex="1" parent="1">
          <mxGeometry x="700" y="286" width="470" height="50" as="geometry" />
        </mxCell>
        <mxCell id="SKkXFKjDcY55AdcUD5MD-30" value="技术服务及工程款收入" style="text;html=1;align=center;verticalAlign=middle;whiteSpace=wrap;rounded=0;" vertex="1" parent="1">
          <mxGeometry x="805" y="296" width="70" height="30" as="geometry" />
        </mxCell>
        <mxCell id="SKkXFKjDcY55AdcUD5MD-31" value="预算科目" style="text;html=1;align=center;verticalAlign=middle;whiteSpace=wrap;rounded=0;" vertex="1" parent="1">
          <mxGeometry x="930" y="296" width="60" height="30" as="geometry" />
        </mxCell>
        <mxCell id="SKkXFKjDcY55AdcUD5MD-32" value="" style="rounded=0;whiteSpace=wrap;html=1;" vertex="1" parent="1">
          <mxGeometry x="700" y="344" width="470" height="50" as="geometry" />
        </mxCell>
        <mxCell id="SKkXFKjDcY55AdcUD5MD-33" value="运营服务收入" style="text;html=1;align=center;verticalAlign=middle;whiteSpace=wrap;rounded=0;" vertex="1" parent="1">
          <mxGeometry x="805" y="354" width="70" height="30" as="geometry" />
        </mxCell>
        <mxCell id="SKkXFKjDcY55AdcUD5MD-34" value="预算科目" style="text;html=1;align=center;verticalAlign=middle;whiteSpace=wrap;rounded=0;" vertex="1" parent="1">
          <mxGeometry x="930" y="354" width="60" height="30" as="geometry" />
        </mxCell>
        <mxCell id="SKkXFKjDcY55AdcUD5MD-35" value="1" style="text;html=1;align=center;verticalAlign=middle;whiteSpace=wrap;rounded=0;" vertex="1" parent="1">
          <mxGeometry x="715" y="230" width="70" height="30" as="geometry" />
        </mxCell>
        <mxCell id="SKkXFKjDcY55AdcUD5MD-36" value="2" style="text;html=1;align=center;verticalAlign=middle;whiteSpace=wrap;rounded=0;" vertex="1" parent="1">
          <mxGeometry x="715" y="296" width="70" height="30" as="geometry" />
        </mxCell>
        <mxCell id="SKkXFKjDcY55AdcUD5MD-37" value="3" style="text;html=1;align=center;verticalAlign=middle;whiteSpace=wrap;rounded=0;" vertex="1" parent="1">
          <mxGeometry x="715" y="354" width="70" height="30" as="geometry" />
        </mxCell>
        <mxCell id="SKkXFKjDcY55AdcUD5MD-38" value="编辑" style="text;html=1;align=center;verticalAlign=middle;whiteSpace=wrap;rounded=0;" vertex="1" parent="1">
          <mxGeometry x="1090" y="296" width="60" height="30" as="geometry" />
        </mxCell>
        <mxCell id="SKkXFKjDcY55AdcUD5MD-39" value="编辑" style="text;html=1;align=center;verticalAlign=middle;whiteSpace=wrap;rounded=0;" vertex="1" parent="1">
          <mxGeometry x="1090" y="358.5" width="60" height="30" as="geometry" />
        </mxCell>
        <mxCell id="SKkXFKjDcY55AdcUD5MD-40" value="" style="rounded=0;whiteSpace=wrap;html=1;" vertex="1" parent="1">
          <mxGeometry x="3130" y="87.5" width="970" height="736" as="geometry" />
        </mxCell>
        <mxCell id="SKkXFKjDcY55AdcUD5MD-41" value="" style="rounded=0;whiteSpace=wrap;html=1;" vertex="1" parent="1">
          <mxGeometry x="3160" y="357" width="900" height="50" as="geometry" />
        </mxCell>
        <mxCell id="SKkXFKjDcY55AdcUD5MD-42" value="支出预算统计" style="text;html=1;align=center;verticalAlign=middle;whiteSpace=wrap;rounded=0;" vertex="1" parent="1">
          <mxGeometry x="3140" y="108.5" width="130" height="30" as="geometry" />
        </mxCell>
        <mxCell id="SKkXFKjDcY55AdcUD5MD-43" value="所属公司：" style="text;html=1;align=center;verticalAlign=middle;whiteSpace=wrap;rounded=0;" vertex="1" parent="1">
          <mxGeometry x="3272" y="108.5" width="110" height="30" as="geometry" />
        </mxCell>
        <mxCell id="SKkXFKjDcY55AdcUD5MD-44" value="园博" style="text;html=1;align=center;verticalAlign=middle;whiteSpace=wrap;rounded=0;" vertex="1" parent="1">
          <mxGeometry x="3350" y="108.5" width="60" height="30" as="geometry" />
        </mxCell>
        <mxCell id="SKkXFKjDcY55AdcUD5MD-45" value="" style="rounded=0;whiteSpace=wrap;html=1;fillColor=#eeeeee;strokeColor=#36393d;" vertex="1" parent="1">
          <mxGeometry x="3160" y="163.5" width="900" height="50" as="geometry" />
        </mxCell>
        <mxCell id="SKkXFKjDcY55AdcUD5MD-46" value="" style="rounded=0;whiteSpace=wrap;html=1;" vertex="1" parent="1">
          <mxGeometry x="3160" y="225.5" width="900" height="50" as="geometry" />
        </mxCell>
        <mxCell id="SKkXFKjDcY55AdcUD5MD-47" value="" style="rounded=0;whiteSpace=wrap;html=1;" vertex="1" parent="1">
          <mxGeometry x="3160" y="292.25" width="900" height="50" as="geometry" />
        </mxCell>
        <mxCell id="SKkXFKjDcY55AdcUD5MD-48" value="设计费" style="text;html=1;align=center;verticalAlign=middle;whiteSpace=wrap;rounded=0;" vertex="1" parent="1">
          <mxGeometry x="3240" y="238.5" width="70" height="30" as="geometry" />
        </mxCell>
        <mxCell id="SKkXFKjDcY55AdcUD5MD-49" value="改造费" style="text;html=1;align=center;verticalAlign=middle;whiteSpace=wrap;rounded=0;" vertex="1" parent="1">
          <mxGeometry x="3240" y="302.25" width="70" height="30" as="geometry" />
        </mxCell>
        <mxCell id="SKkXFKjDcY55AdcUD5MD-50" value="维护费" style="text;html=1;align=center;verticalAlign=middle;whiteSpace=wrap;rounded=0;" vertex="1" parent="1">
          <mxGeometry x="3240" y="370" width="70" height="30" as="geometry" />
        </mxCell>
        <mxCell id="SKkXFKjDcY55AdcUD5MD-51" value="项目名称&lt;br&gt;（科目）" style="text;html=1;align=center;verticalAlign=middle;whiteSpace=wrap;rounded=0;" vertex="1" parent="1">
          <mxGeometry x="3235" y="172.13" width="80" height="30" as="geometry" />
        </mxCell>
        <mxCell id="SKkXFKjDcY55AdcUD5MD-52" value="部门&lt;br&gt;（编制单位）" style="text;html=1;align=center;verticalAlign=middle;whiteSpace=wrap;rounded=0;" vertex="1" parent="1">
          <mxGeometry x="3165" y="172.13" width="80" height="30" as="geometry" />
        </mxCell>
        <mxCell id="SKkXFKjDcY55AdcUD5MD-53" value="工程部" style="text;html=1;align=center;verticalAlign=middle;whiteSpace=wrap;rounded=0;" vertex="1" parent="1">
          <mxGeometry x="3170" y="238.5" width="70" height="30" as="geometry" />
        </mxCell>
        <mxCell id="SKkXFKjDcY55AdcUD5MD-54" value="工程部" style="text;html=1;align=center;verticalAlign=middle;whiteSpace=wrap;rounded=0;" vertex="1" parent="1">
          <mxGeometry x="3170" y="302.25" width="70" height="30" as="geometry" />
        </mxCell>
        <mxCell id="SKkXFKjDcY55AdcUD5MD-55" value="工程部" style="text;html=1;align=center;verticalAlign=middle;whiteSpace=wrap;rounded=0;" vertex="1" parent="1">
          <mxGeometry x="3170" y="369.5" width="70" height="30" as="geometry" />
        </mxCell>
        <mxCell id="SKkXFKjDcY55AdcUD5MD-56" value="一季度" style="text;html=1;align=center;verticalAlign=middle;whiteSpace=wrap;rounded=0;" vertex="1" parent="1">
          <mxGeometry x="3390" y="175.25" width="80" height="30" as="geometry" />
        </mxCell>
        <mxCell id="SKkXFKjDcY55AdcUD5MD-57" value="10000" style="text;html=1;align=center;verticalAlign=middle;whiteSpace=wrap;rounded=0;" vertex="1" parent="1">
          <mxGeometry x="3403" y="241" width="70" height="30" as="geometry" />
        </mxCell>
        <mxCell id="SKkXFKjDcY55AdcUD5MD-58" value="5000" style="text;html=1;align=center;verticalAlign=middle;whiteSpace=wrap;rounded=0;" vertex="1" parent="1">
          <mxGeometry x="3480" y="242.75" width="70" height="30" as="geometry" />
        </mxCell>
        <mxCell id="SKkXFKjDcY55AdcUD5MD-59" value="10000" style="text;html=1;align=center;verticalAlign=middle;whiteSpace=wrap;rounded=0;" vertex="1" parent="1">
          <mxGeometry x="3403" y="368.75" width="70" height="30" as="geometry" />
        </mxCell>
        <mxCell id="SKkXFKjDcY55AdcUD5MD-60" value="10000" style="text;html=1;align=center;verticalAlign=middle;whiteSpace=wrap;rounded=0;" vertex="1" parent="1">
          <mxGeometry x="3403" y="302.5" width="70" height="30" as="geometry" />
        </mxCell>
        <mxCell id="SKkXFKjDcY55AdcUD5MD-61" value="一季度&lt;br&gt;实际支出" style="text;html=1;align=center;verticalAlign=middle;whiteSpace=wrap;rounded=0;" vertex="1" parent="1">
          <mxGeometry x="3470" y="175.25" width="80" height="30" as="geometry" />
        </mxCell>
        <mxCell id="SKkXFKjDcY55AdcUD5MD-62" value="0" style="text;html=1;align=center;verticalAlign=middle;whiteSpace=wrap;rounded=0;" vertex="1" parent="1">
          <mxGeometry x="3480" y="368.75" width="70" height="30" as="geometry" />
        </mxCell>
        <mxCell id="SKkXFKjDcY55AdcUD5MD-63" value="5000" style="text;html=1;align=center;verticalAlign=middle;whiteSpace=wrap;rounded=0;" vertex="1" parent="1">
          <mxGeometry x="3480" y="304" width="70" height="30" as="geometry" />
        </mxCell>
        <mxCell id="SKkXFKjDcY55AdcUD5MD-64" value="二季度" style="text;html=1;align=center;verticalAlign=middle;whiteSpace=wrap;rounded=0;" vertex="1" parent="1">
          <mxGeometry x="3550" y="173.88" width="80" height="30" as="geometry" />
        </mxCell>
        <mxCell id="SKkXFKjDcY55AdcUD5MD-65" value="10000" style="text;html=1;align=center;verticalAlign=middle;whiteSpace=wrap;rounded=0;" vertex="1" parent="1">
          <mxGeometry x="3555" y="239" width="70" height="30" as="geometry" />
        </mxCell>
        <mxCell id="SKkXFKjDcY55AdcUD5MD-66" value="5000" style="text;html=1;align=center;verticalAlign=middle;whiteSpace=wrap;rounded=0;" vertex="1" parent="1">
          <mxGeometry x="3640" y="241.38" width="70" height="30" as="geometry" />
        </mxCell>
        <mxCell id="SKkXFKjDcY55AdcUD5MD-67" value="10000" style="text;html=1;align=center;verticalAlign=middle;whiteSpace=wrap;rounded=0;" vertex="1" parent="1">
          <mxGeometry x="3555" y="366.75" width="70" height="30" as="geometry" />
        </mxCell>
        <mxCell id="SKkXFKjDcY55AdcUD5MD-68" value="10000" style="text;html=1;align=center;verticalAlign=middle;whiteSpace=wrap;rounded=0;" vertex="1" parent="1">
          <mxGeometry x="3555" y="298.75" width="70" height="30" as="geometry" />
        </mxCell>
        <mxCell id="SKkXFKjDcY55AdcUD5MD-69" value="二季度&lt;br&gt;实际支出" style="text;html=1;align=center;verticalAlign=middle;whiteSpace=wrap;rounded=0;" vertex="1" parent="1">
          <mxGeometry x="3630" y="173.88" width="80" height="30" as="geometry" />
        </mxCell>
        <mxCell id="SKkXFKjDcY55AdcUD5MD-70" value="0" style="text;html=1;align=center;verticalAlign=middle;whiteSpace=wrap;rounded=0;" vertex="1" parent="1">
          <mxGeometry x="3640" y="366.75" width="70" height="30" as="geometry" />
        </mxCell>
        <mxCell id="SKkXFKjDcY55AdcUD5MD-71" value="5000" style="text;html=1;align=center;verticalAlign=middle;whiteSpace=wrap;rounded=0;" vertex="1" parent="1">
          <mxGeometry x="3640" y="302.63" width="70" height="30" as="geometry" />
        </mxCell>
        <mxCell id="SKkXFKjDcY55AdcUD5MD-72" value="年度：2025" style="text;html=1;align=center;verticalAlign=middle;whiteSpace=wrap;rounded=0;" vertex="1" parent="1">
          <mxGeometry x="3450" y="108.5" width="110" height="30" as="geometry" />
        </mxCell>
        <mxCell id="SKkXFKjDcY55AdcUD5MD-73" value="三季度" style="text;html=1;align=center;verticalAlign=middle;whiteSpace=wrap;rounded=0;" vertex="1" parent="1">
          <mxGeometry x="3716" y="173.88" width="80" height="30" as="geometry" />
        </mxCell>
        <mxCell id="SKkXFKjDcY55AdcUD5MD-74" value="10000" style="text;html=1;align=center;verticalAlign=middle;whiteSpace=wrap;rounded=0;" vertex="1" parent="1">
          <mxGeometry x="3721" y="239" width="70" height="30" as="geometry" />
        </mxCell>
        <mxCell id="SKkXFKjDcY55AdcUD5MD-75" value="0" style="text;html=1;align=center;verticalAlign=middle;whiteSpace=wrap;rounded=0;" vertex="1" parent="1">
          <mxGeometry x="3806" y="241.38" width="70" height="30" as="geometry" />
        </mxCell>
        <mxCell id="SKkXFKjDcY55AdcUD5MD-76" value="10000" style="text;html=1;align=center;verticalAlign=middle;whiteSpace=wrap;rounded=0;" vertex="1" parent="1">
          <mxGeometry x="3721" y="366.75" width="70" height="30" as="geometry" />
        </mxCell>
        <mxCell id="SKkXFKjDcY55AdcUD5MD-77" value="10000" style="text;html=1;align=center;verticalAlign=middle;whiteSpace=wrap;rounded=0;" vertex="1" parent="1">
          <mxGeometry x="3721" y="298.75" width="70" height="30" as="geometry" />
        </mxCell>
        <mxCell id="SKkXFKjDcY55AdcUD5MD-78" value="三季度&lt;br&gt;实际支出" style="text;html=1;align=center;verticalAlign=middle;whiteSpace=wrap;rounded=0;" vertex="1" parent="1">
          <mxGeometry x="3796" y="173.88" width="80" height="30" as="geometry" />
        </mxCell>
        <mxCell id="SKkXFKjDcY55AdcUD5MD-79" value="0" style="text;html=1;align=center;verticalAlign=middle;whiteSpace=wrap;rounded=0;" vertex="1" parent="1">
          <mxGeometry x="3814" y="367.38" width="70" height="30" as="geometry" />
        </mxCell>
        <mxCell id="SKkXFKjDcY55AdcUD5MD-80" value="0" style="text;html=1;align=center;verticalAlign=middle;whiteSpace=wrap;rounded=0;" vertex="1" parent="1">
          <mxGeometry x="3806" y="302.63" width="70" height="30" as="geometry" />
        </mxCell>
        <mxCell id="SKkXFKjDcY55AdcUD5MD-81" value="四季度" style="text;html=1;align=center;verticalAlign=middle;whiteSpace=wrap;rounded=0;" vertex="1" parent="1">
          <mxGeometry x="3876" y="173.88" width="80" height="30" as="geometry" />
        </mxCell>
        <mxCell id="SKkXFKjDcY55AdcUD5MD-82" value="10000" style="text;html=1;align=center;verticalAlign=middle;whiteSpace=wrap;rounded=0;" vertex="1" parent="1">
          <mxGeometry x="3881" y="238" width="70" height="30" as="geometry" />
        </mxCell>
        <mxCell id="SKkXFKjDcY55AdcUD5MD-83" value="0" style="text;html=1;align=center;verticalAlign=middle;whiteSpace=wrap;rounded=0;" vertex="1" parent="1">
          <mxGeometry x="3966" y="241.38" width="70" height="30" as="geometry" />
        </mxCell>
        <mxCell id="SKkXFKjDcY55AdcUD5MD-84" value="10000" style="text;html=1;align=center;verticalAlign=middle;whiteSpace=wrap;rounded=0;" vertex="1" parent="1">
          <mxGeometry x="3881" y="366.75" width="70" height="30" as="geometry" />
        </mxCell>
        <mxCell id="SKkXFKjDcY55AdcUD5MD-85" value="10000" style="text;html=1;align=center;verticalAlign=middle;whiteSpace=wrap;rounded=0;" vertex="1" parent="1">
          <mxGeometry x="3881" y="298.75" width="70" height="30" as="geometry" />
        </mxCell>
        <mxCell id="SKkXFKjDcY55AdcUD5MD-86" value="四季度&lt;br&gt;实际支出" style="text;html=1;align=center;verticalAlign=middle;whiteSpace=wrap;rounded=0;" vertex="1" parent="1">
          <mxGeometry x="3956" y="173.88" width="80" height="30" as="geometry" />
        </mxCell>
        <mxCell id="SKkXFKjDcY55AdcUD5MD-87" value="0" style="text;html=1;align=center;verticalAlign=middle;whiteSpace=wrap;rounded=0;" vertex="1" parent="1">
          <mxGeometry x="3966" y="366.75" width="70" height="30" as="geometry" />
        </mxCell>
        <mxCell id="SKkXFKjDcY55AdcUD5MD-88" value="0" style="text;html=1;align=center;verticalAlign=middle;whiteSpace=wrap;rounded=0;" vertex="1" parent="1">
          <mxGeometry x="3966" y="302.63" width="70" height="30" as="geometry" />
        </mxCell>
        <mxCell id="SKkXFKjDcY55AdcUD5MD-89" value="项目&lt;br&gt;（区域）" style="text;html=1;align=center;verticalAlign=middle;whiteSpace=wrap;rounded=0;" vertex="1" parent="1">
          <mxGeometry x="3312" y="173.88" width="70" height="30" as="geometry" />
        </mxCell>
        <mxCell id="SKkXFKjDcY55AdcUD5MD-90" value="35#" style="text;html=1;align=center;verticalAlign=middle;whiteSpace=wrap;rounded=0;" vertex="1" parent="1">
          <mxGeometry x="3317" y="241" width="60" height="30" as="geometry" />
        </mxCell>
        <mxCell id="SKkXFKjDcY55AdcUD5MD-91" value="6022周围市政" style="text;html=1;align=center;verticalAlign=middle;whiteSpace=wrap;rounded=0;" vertex="1" parent="1">
          <mxGeometry x="3322" y="309.63" width="60" height="30" as="geometry" />
        </mxCell>
        <mxCell id="SKkXFKjDcY55AdcUD5MD-92" value="37#" style="text;html=1;align=center;verticalAlign=middle;whiteSpace=wrap;rounded=0;" vertex="1" parent="1">
          <mxGeometry x="3322" y="365.38" width="60" height="30" as="geometry" />
        </mxCell>
        <mxCell id="SKkXFKjDcY55AdcUD5MD-93" value="导出" style="rounded=1;whiteSpace=wrap;html=1;" vertex="1" parent="1">
          <mxGeometry x="3990" y="108.5" width="60" height="35" as="geometry" />
        </mxCell>
        <mxCell id="SKkXFKjDcY55AdcUD5MD-96" value="年度：2025" style="text;html=1;align=center;verticalAlign=middle;whiteSpace=wrap;rounded=0;" vertex="1" parent="1">
          <mxGeometry x="80" y="264" width="120" height="30" as="geometry" />
        </mxCell>
        <mxCell id="SKkXFKjDcY55AdcUD5MD-97" value="起止时间：2025/07/01 - 2025/09/30" style="text;html=1;align=center;verticalAlign=middle;whiteSpace=wrap;rounded=0;" vertex="1" parent="1">
          <mxGeometry x="205" y="266" width="230" height="30" as="geometry" />
        </mxCell>
        <mxCell id="SKkXFKjDcY55AdcUD5MD-98" value="编制单位：" style="text;html=1;align=center;verticalAlign=middle;whiteSpace=wrap;rounded=0;" vertex="1" parent="1">
          <mxGeometry x="78" y="304" width="120" height="30" as="geometry" />
        </mxCell>
        <mxCell id="SKkXFKjDcY55AdcUD5MD-99" value="责任单位：" style="text;html=1;align=center;verticalAlign=middle;whiteSpace=wrap;rounded=0;" vertex="1" parent="1">
          <mxGeometry x="204" y="309" width="100" height="30" as="geometry" />
        </mxCell>
        <mxCell id="SKkXFKjDcY55AdcUD5MD-101" value="" style="rounded=0;whiteSpace=wrap;html=1;" vertex="1" parent="1">
          <mxGeometry x="1920" y="80" width="1120" height="330" as="geometry" />
        </mxCell>
        <mxCell id="SKkXFKjDcY55AdcUD5MD-102" value="合同管理" style="text;html=1;align=center;verticalAlign=middle;whiteSpace=wrap;rounded=0;" vertex="1" parent="1">
          <mxGeometry x="1920" y="100" width="130" height="30" as="geometry" />
        </mxCell>
        <mxCell id="SKkXFKjDcY55AdcUD5MD-103" value="" style="rounded=0;whiteSpace=wrap;html=1;fillColor=#eeeeee;strokeColor=#36393d;" vertex="1" parent="1">
          <mxGeometry x="1940" y="144" width="1050" height="60" as="geometry" />
        </mxCell>
        <mxCell id="SKkXFKjDcY55AdcUD5MD-104" value="编号" style="text;html=1;align=center;verticalAlign=middle;whiteSpace=wrap;rounded=0;" vertex="1" parent="1">
          <mxGeometry x="1950" y="159" width="60" height="30" as="geometry" />
        </mxCell>
        <mxCell id="SKkXFKjDcY55AdcUD5MD-105" value="合同名称" style="text;html=1;align=center;verticalAlign=middle;whiteSpace=wrap;rounded=0;" vertex="1" parent="1">
          <mxGeometry x="2240" y="162" width="60" height="30" as="geometry" />
        </mxCell>
        <mxCell id="SKkXFKjDcY55AdcUD5MD-106" value="已支付金额" style="text;html=1;align=center;verticalAlign=middle;whiteSpace=wrap;rounded=0;" vertex="1" parent="1">
          <mxGeometry x="2470" y="163.88" width="80" height="30" as="geometry" />
        </mxCell>
        <mxCell id="SKkXFKjDcY55AdcUD5MD-107" value="操作" style="text;html=1;align=center;verticalAlign=middle;whiteSpace=wrap;rounded=0;" vertex="1" parent="1">
          <mxGeometry x="2890" y="164.88" width="60" height="30" as="geometry" />
        </mxCell>
        <mxCell id="SKkXFKjDcY55AdcUD5MD-108" value="" style="rounded=0;whiteSpace=wrap;html=1;" vertex="1" parent="1">
          <mxGeometry x="1940" y="220" width="1050" height="50" as="geometry" />
        </mxCell>
        <mxCell id="SKkXFKjDcY55AdcUD5MD-109" value="-" style="text;html=1;align=center;verticalAlign=middle;whiteSpace=wrap;rounded=0;" vertex="1" parent="1">
          <mxGeometry x="2470" y="229" width="60" height="30" as="geometry" />
        </mxCell>
        <mxCell id="SKkXFKjDcY55AdcUD5MD-110" value="编辑" style="text;html=1;align=center;verticalAlign=middle;whiteSpace=wrap;rounded=0;" vertex="1" parent="1">
          <mxGeometry x="2890" y="228.25" width="60" height="30" as="geometry" />
        </mxCell>
        <mxCell id="SKkXFKjDcY55AdcUD5MD-111" value="本年计划&lt;br&gt;支付金额" style="text;html=1;align=center;verticalAlign=middle;whiteSpace=wrap;rounded=0;" vertex="1" parent="1">
          <mxGeometry x="2540" y="164.88" width="110" height="30" as="geometry" />
        </mxCell>
        <mxCell id="SKkXFKjDcY55AdcUD5MD-112" value="26000" style="text;html=1;align=center;verticalAlign=middle;whiteSpace=wrap;rounded=0;" vertex="1" parent="1">
          <mxGeometry x="2565" y="228.25" width="60" height="30" as="geometry" />
        </mxCell>
        <mxCell id="SKkXFKjDcY55AdcUD5MD-113" value="东区35#照明设计" style="text;html=1;align=center;verticalAlign=middle;whiteSpace=wrap;rounded=0;" vertex="1" parent="1">
          <mxGeometry x="2235" y="229.25" width="80" height="30" as="geometry" />
        </mxCell>
        <mxCell id="SKkXFKjDcY55AdcUD5MD-114" value="1" style="text;html=1;align=center;verticalAlign=middle;whiteSpace=wrap;rounded=0;" vertex="1" parent="1">
          <mxGeometry x="1950" y="232" width="60" height="30" as="geometry" />
        </mxCell>
        <mxCell id="SKkXFKjDcY55AdcUD5MD-115" value="" style="rounded=0;whiteSpace=wrap;html=1;" vertex="1" parent="1">
          <mxGeometry x="1940" y="281.5" width="1050" height="50" as="geometry" />
        </mxCell>
        <mxCell id="SKkXFKjDcY55AdcUD5MD-116" value="19000" style="text;html=1;align=center;verticalAlign=middle;whiteSpace=wrap;rounded=0;" vertex="1" parent="1">
          <mxGeometry x="2470" y="290.5" width="60" height="30" as="geometry" />
        </mxCell>
        <mxCell id="SKkXFKjDcY55AdcUD5MD-117" value="编辑" style="text;html=1;align=center;verticalAlign=middle;whiteSpace=wrap;rounded=0;" vertex="1" parent="1">
          <mxGeometry x="2890" y="290.5" width="60" height="30" as="geometry" />
        </mxCell>
        <mxCell id="SKkXFKjDcY55AdcUD5MD-118" value="26000" style="text;html=1;align=center;verticalAlign=middle;whiteSpace=wrap;rounded=0;" vertex="1" parent="1">
          <mxGeometry x="2565" y="291.5" width="60" height="30" as="geometry" />
        </mxCell>
        <mxCell id="SKkXFKjDcY55AdcUD5MD-119" value="6022周围市政绿化改造" style="text;html=1;align=center;verticalAlign=middle;whiteSpace=wrap;rounded=0;" vertex="1" parent="1">
          <mxGeometry x="2230" y="290.75" width="90" height="30" as="geometry" />
        </mxCell>
        <mxCell id="SKkXFKjDcY55AdcUD5MD-120" value="2" style="text;html=1;align=center;verticalAlign=middle;whiteSpace=wrap;rounded=0;" vertex="1" parent="1">
          <mxGeometry x="1950" y="293.5" width="60" height="30" as="geometry" />
        </mxCell>
        <mxCell id="SKkXFKjDcY55AdcUD5MD-121" value="" style="rounded=0;whiteSpace=wrap;html=1;" vertex="1" parent="1">
          <mxGeometry x="1940" y="341.5" width="1050" height="50" as="geometry" />
        </mxCell>
        <mxCell id="SKkXFKjDcY55AdcUD5MD-122" value="19000" style="text;html=1;align=center;verticalAlign=middle;whiteSpace=wrap;rounded=0;" vertex="1" parent="1">
          <mxGeometry x="2470" y="350.5" width="60" height="30" as="geometry" />
        </mxCell>
        <mxCell id="SKkXFKjDcY55AdcUD5MD-123" value="编辑" style="text;html=1;align=center;verticalAlign=middle;whiteSpace=wrap;rounded=0;" vertex="1" parent="1">
          <mxGeometry x="2890" y="353.5" width="60" height="30" as="geometry" />
        </mxCell>
        <mxCell id="SKkXFKjDcY55AdcUD5MD-124" value="26000" style="text;html=1;align=center;verticalAlign=middle;whiteSpace=wrap;rounded=0;" vertex="1" parent="1">
          <mxGeometry x="2565" y="351.5" width="60" height="30" as="geometry" />
        </mxCell>
        <mxCell id="SKkXFKjDcY55AdcUD5MD-125" value="35# 一号楼墙面维护" style="text;html=1;align=center;verticalAlign=middle;whiteSpace=wrap;rounded=0;" vertex="1" parent="1">
          <mxGeometry x="2240" y="350.5" width="80" height="30" as="geometry" />
        </mxCell>
        <mxCell id="SKkXFKjDcY55AdcUD5MD-126" value="1" style="text;html=1;align=center;verticalAlign=middle;whiteSpace=wrap;rounded=0;" vertex="1" parent="1">
          <mxGeometry x="1950" y="353.5" width="60" height="30" as="geometry" />
        </mxCell>
        <mxCell id="SKkXFKjDcY55AdcUD5MD-127" value="添加" style="rounded=1;whiteSpace=wrap;html=1;" vertex="1" parent="1">
          <mxGeometry x="2920" y="96.25" width="60" height="35" as="geometry" />
        </mxCell>
        <mxCell id="SKkXFKjDcY55AdcUD5MD-128" value="项目&lt;br&gt;（区域）" style="text;html=1;align=center;verticalAlign=middle;whiteSpace=wrap;rounded=0;" vertex="1" parent="1">
          <mxGeometry x="2080" y="160" width="70" height="30" as="geometry" />
        </mxCell>
        <mxCell id="SKkXFKjDcY55AdcUD5MD-129" value="35#" style="text;html=1;align=center;verticalAlign=middle;whiteSpace=wrap;rounded=0;" vertex="1" parent="1">
          <mxGeometry x="2085" y="232" width="60" height="30" as="geometry" />
        </mxCell>
        <mxCell id="SKkXFKjDcY55AdcUD5MD-130" value="6022周围市政" style="text;html=1;align=center;verticalAlign=middle;whiteSpace=wrap;rounded=0;" vertex="1" parent="1">
          <mxGeometry x="2090" y="295.75" width="60" height="30" as="geometry" />
        </mxCell>
        <mxCell id="SKkXFKjDcY55AdcUD5MD-131" value="37#" style="text;html=1;align=center;verticalAlign=middle;whiteSpace=wrap;rounded=0;" vertex="1" parent="1">
          <mxGeometry x="2090" y="351.5" width="60" height="30" as="geometry" />
        </mxCell>
        <mxCell id="SKkXFKjDcY55AdcUD5MD-132" value="支出公司" style="text;html=1;align=center;verticalAlign=middle;whiteSpace=wrap;rounded=0;" vertex="1" parent="1">
          <mxGeometry x="2000" y="159.25" width="60" height="30" as="geometry" />
        </mxCell>
        <mxCell id="SKkXFKjDcY55AdcUD5MD-133" value="&lt;span style=&quot;color: rgba(0, 0, 0, 0); font-family: monospace; font-size: 0px; text-align: start; text-wrap-mode: nowrap;&quot;&gt;%3CmxGraphModel%3E%3Croot%3E%3CmxCell%20id%3D%220%22%2F%3E%3CmxCell%20id%3D%221%22%20parent%3D%220%22%2F%3E%3CmxCell%20id%3D%222%22%20value%3D%22%E5%9B%AD%E5%8D%9A%22%20style%3D%22text%3Bhtml%3D1%3Balign%3Dcenter%3BverticalAlign%3Dmiddle%3BwhiteSpace%3Dwrap%3Brounded%3D0%3B%22%20vertex%3D%221%22%20parent%3D%221%22%3E%3CmxGeometry%20x%3D%223795%22%20y%3D%22293.75%22%20width%3D%2260%22%20height%3D%2230%22%20as%3D%22geometry%22%2F%3E%3C%2FmxCell%3E%3C%2Froot%3E%3C%2FmxGraphModel%3E&lt;/span&gt;" style="text;html=1;align=center;verticalAlign=middle;whiteSpace=wrap;rounded=0;" vertex="1" parent="1">
          <mxGeometry x="2000" y="232" width="60" height="30" as="geometry" />
        </mxCell>
        <mxCell id="SKkXFKjDcY55AdcUD5MD-134" value="园博" style="text;html=1;align=center;verticalAlign=middle;whiteSpace=wrap;rounded=0;" vertex="1" parent="1">
          <mxGeometry x="2000" y="229" width="60" height="30" as="geometry" />
        </mxCell>
        <mxCell id="SKkXFKjDcY55AdcUD5MD-135" value="丰科投" style="text;html=1;align=center;verticalAlign=middle;whiteSpace=wrap;rounded=0;" vertex="1" parent="1">
          <mxGeometry x="2000" y="290.5" width="60" height="30" as="geometry" />
        </mxCell>
        <mxCell id="SKkXFKjDcY55AdcUD5MD-136" value="新源" style="text;html=1;align=center;verticalAlign=middle;whiteSpace=wrap;rounded=0;" vertex="1" parent="1">
          <mxGeometry x="2000" y="350.5" width="60" height="30" as="geometry" />
        </mxCell>
        <mxCell id="SKkXFKjDcY55AdcUD5MD-137" value="合同号" style="text;html=1;align=center;verticalAlign=middle;whiteSpace=wrap;rounded=0;" vertex="1" parent="1">
          <mxGeometry x="2160" y="161" width="60" height="30" as="geometry" />
        </mxCell>
        <mxCell id="SKkXFKjDcY55AdcUD5MD-138" value="001" style="text;html=1;align=center;verticalAlign=middle;whiteSpace=wrap;rounded=0;" vertex="1" parent="1">
          <mxGeometry x="2160" y="228.25" width="60" height="30" as="geometry" />
        </mxCell>
        <mxCell id="SKkXFKjDcY55AdcUD5MD-139" value="002" style="text;html=1;align=center;verticalAlign=middle;whiteSpace=wrap;rounded=0;" vertex="1" parent="1">
          <mxGeometry x="2160" y="289.75" width="60" height="30" as="geometry" />
        </mxCell>
        <mxCell id="SKkXFKjDcY55AdcUD5MD-140" value="003" style="text;html=1;align=center;verticalAlign=middle;whiteSpace=wrap;rounded=0;" vertex="1" parent="1">
          <mxGeometry x="2160" y="349.75" width="60" height="30" as="geometry" />
        </mxCell>
        <mxCell id="SKkXFKjDcY55AdcUD5MD-141" value="合同金额" style="text;html=1;align=center;verticalAlign=middle;whiteSpace=wrap;rounded=0;" vertex="1" parent="1">
          <mxGeometry x="2325" y="162.75" width="60" height="30" as="geometry" />
        </mxCell>
        <mxCell id="SKkXFKjDcY55AdcUD5MD-142" value="26000" style="text;html=1;align=center;verticalAlign=middle;whiteSpace=wrap;rounded=0;" vertex="1" parent="1">
          <mxGeometry x="2325" y="230" width="60" height="30" as="geometry" />
        </mxCell>
        <mxCell id="SKkXFKjDcY55AdcUD5MD-143" value="26000" style="text;html=1;align=center;verticalAlign=middle;whiteSpace=wrap;rounded=0;" vertex="1" parent="1">
          <mxGeometry x="2325" y="291.5" width="60" height="30" as="geometry" />
        </mxCell>
        <mxCell id="SKkXFKjDcY55AdcUD5MD-144" value="26000" style="text;html=1;align=center;verticalAlign=middle;whiteSpace=wrap;rounded=0;" vertex="1" parent="1">
          <mxGeometry x="2325" y="351.5" width="60" height="30" as="geometry" />
        </mxCell>
        <mxCell id="SKkXFKjDcY55AdcUD5MD-145" value="设计费" style="text;html=1;align=center;verticalAlign=middle;whiteSpace=wrap;rounded=0;" vertex="1" parent="1">
          <mxGeometry x="2650" y="231.25" width="70" height="30" as="geometry" />
        </mxCell>
        <mxCell id="SKkXFKjDcY55AdcUD5MD-146" value="改造费" style="text;html=1;align=center;verticalAlign=middle;whiteSpace=wrap;rounded=0;" vertex="1" parent="1">
          <mxGeometry x="2650" y="291.5" width="70" height="30" as="geometry" />
        </mxCell>
        <mxCell id="SKkXFKjDcY55AdcUD5MD-147" value="维护费" style="text;html=1;align=center;verticalAlign=middle;whiteSpace=wrap;rounded=0;" vertex="1" parent="1">
          <mxGeometry x="2650" y="353.5" width="70" height="30" as="geometry" />
        </mxCell>
        <mxCell id="SKkXFKjDcY55AdcUD5MD-148" value="支付日期" style="text;html=1;align=center;verticalAlign=middle;whiteSpace=wrap;rounded=0;" vertex="1" parent="1">
          <mxGeometry x="2720" y="162.75" width="110" height="30" as="geometry" />
        </mxCell>
        <mxCell id="SKkXFKjDcY55AdcUD5MD-149" value="-" style="text;html=1;align=center;verticalAlign=middle;whiteSpace=wrap;rounded=0;" vertex="1" parent="1">
          <mxGeometry x="2740" y="231.25" width="60" height="30" as="geometry" />
        </mxCell>
        <mxCell id="SKkXFKjDcY55AdcUD5MD-150" value="2025-5-3" style="text;html=1;align=center;verticalAlign=middle;whiteSpace=wrap;rounded=0;" vertex="1" parent="1">
          <mxGeometry x="2745" y="293.5" width="60" height="30" as="geometry" />
        </mxCell>
        <mxCell id="SKkXFKjDcY55AdcUD5MD-151" value="2025-5-3" style="text;html=1;align=center;verticalAlign=middle;whiteSpace=wrap;rounded=0;" vertex="1" parent="1">
          <mxGeometry x="2745" y="353.5" width="60" height="30" as="geometry" />
        </mxCell>
        <mxCell id="SKkXFKjDcY55AdcUD5MD-152" value="状态" style="text;html=1;align=center;verticalAlign=middle;whiteSpace=wrap;rounded=0;" vertex="1" parent="1">
          <mxGeometry x="2800" y="164.88" width="110" height="30" as="geometry" />
        </mxCell>
        <mxCell id="SKkXFKjDcY55AdcUD5MD-153" value="未支付" style="text;html=1;align=center;verticalAlign=middle;whiteSpace=wrap;rounded=0;fillColor=#eeeeee;strokeColor=#36393d;" vertex="1" parent="1">
          <mxGeometry x="2825" y="231.25" width="60" height="30" as="geometry" />
        </mxCell>
        <mxCell id="SKkXFKjDcY55AdcUD5MD-154" value="已支付" style="text;html=1;align=center;verticalAlign=middle;whiteSpace=wrap;rounded=0;fillColor=#cdeb8b;strokeColor=#36393d;" vertex="1" parent="1">
          <mxGeometry x="2825" y="293.5" width="60" height="30" as="geometry" />
        </mxCell>
        <mxCell id="SKkXFKjDcY55AdcUD5MD-155" value="已支付" style="text;html=1;align=center;verticalAlign=middle;whiteSpace=wrap;rounded=0;fillColor=#cdeb8b;strokeColor=#36393d;" vertex="1" parent="1">
          <mxGeometry x="2825" y="351.25" width="60" height="30" as="geometry" />
        </mxCell>
        <mxCell id="SKkXFKjDcY55AdcUD5MD-156" value="税后金额" style="text;html=1;align=center;verticalAlign=middle;whiteSpace=wrap;rounded=0;" vertex="1" parent="1">
          <mxGeometry x="2405" y="163.88" width="60" height="30" as="geometry" />
        </mxCell>
        <mxCell id="SKkXFKjDcY55AdcUD5MD-157" value="26000" style="text;html=1;align=center;verticalAlign=middle;whiteSpace=wrap;rounded=0;" vertex="1" parent="1">
          <mxGeometry x="2405" y="231.13" width="60" height="30" as="geometry" />
        </mxCell>
        <mxCell id="SKkXFKjDcY55AdcUD5MD-158" value="26000" style="text;html=1;align=center;verticalAlign=middle;whiteSpace=wrap;rounded=0;" vertex="1" parent="1">
          <mxGeometry x="2405" y="292.63" width="60" height="30" as="geometry" />
        </mxCell>
        <mxCell id="SKkXFKjDcY55AdcUD5MD-159" value="26000" style="text;html=1;align=center;verticalAlign=middle;whiteSpace=wrap;rounded=0;" vertex="1" parent="1">
          <mxGeometry x="2405" y="352.63" width="60" height="30" as="geometry" />
        </mxCell>
        <mxCell id="SKkXFKjDcY55AdcUD5MD-160" value="项目名称&lt;br&gt;（科目）" style="text;html=1;align=center;verticalAlign=middle;whiteSpace=wrap;rounded=0;" vertex="1" parent="1">
          <mxGeometry x="2645" y="164.88" width="80" height="30" as="geometry" />
        </mxCell>
      </root>
    </mxGraphModel>
  </diagram>
</mxfile>
